<svg width="21" height="14" viewBox="0 0 21 14" fill="none" xmlns="http://www.w3.org/2000/svg">
<path d="M6.52028 0.716553C7.09755 0.716553 7.63042 0.760958 8.11888 0.894176C8.60735 0.982987 9.007 1.16061 9.36224 1.38264C9.71749 1.60467 9.98392 1.91551 10.1615 2.31516C10.3392 2.71481 10.428 3.20327 10.428 3.73614C10.428 4.35782 10.2948 4.89069 9.98392 5.29034C9.71749 5.69 9.27343 6.04524 8.74056 6.31168C9.49546 6.5337 10.0727 6.93336 10.428 7.46622C10.7832 7.99909 11.0053 8.66518 11.0053 9.42008C11.0053 10.0418 10.872 10.5746 10.65 11.0187C10.428 11.4627 10.0727 11.8624 9.67308 12.1288C9.27343 12.3953 8.78497 12.6173 8.2521 12.7505C7.71923 12.8837 7.18636 12.9725 6.65349 12.9725H0.703125V0.716553H6.52028ZM6.16503 5.68999C6.65349 5.68999 7.05314 5.55678 7.36398 5.33475C7.67482 5.11272 7.80804 4.71307 7.80804 4.22461C7.80804 3.95817 7.76364 3.69174 7.67482 3.51411C7.58601 3.33649 7.4528 3.20327 7.27517 3.07006C7.09755 2.98125 6.91993 2.89243 6.6979 2.84803C6.47587 2.80362 6.25384 2.80362 5.98741 2.80362H3.41187V5.68999H6.16503ZM6.29825 10.9299C6.56468 10.9299 6.83112 10.8855 7.05314 10.8411C7.27517 10.7967 7.4972 10.7078 7.67482 10.5746C7.85245 10.4414 7.98567 10.3082 8.11888 10.0862C8.20769 9.86413 8.29651 9.5977 8.29651 9.28686C8.29651 8.66518 8.11888 8.22112 7.76364 7.91028C7.40839 7.64385 6.91993 7.51063 6.34265 7.51063H3.41187V10.9299H6.29825ZM14.8686 10.8855C15.2238 11.2407 15.7567 11.4183 16.4672 11.4183C16.9556 11.4183 17.3997 11.2851 17.7549 11.0631C18.1102 10.7967 18.3322 10.5302 18.421 10.2638H20.5969C20.2416 11.3295 19.7088 12.0844 18.9983 12.5729C18.2878 13.0169 17.4441 13.2834 16.4228 13.2834C15.7123 13.2834 15.0906 13.1502 14.5133 12.9281C13.936 12.7061 13.492 12.3953 13.0923 11.9512C12.6927 11.5516 12.3818 11.0631 12.2042 10.4858C11.9822 9.90854 11.8934 9.28686 11.8934 8.57637C11.8934 7.91028 11.9822 7.2886 12.2042 6.71133C12.4262 6.13405 12.7371 5.64559 13.1367 5.20153C13.5364 4.80188 14.0248 4.44663 14.5577 4.22461C15.135 4.00258 15.7123 3.86936 16.4228 3.86936C17.1777 3.86936 17.8437 4.00258 18.421 4.31342C18.9983 4.62426 19.4423 4.9795 19.7976 5.51237C20.1528 6.00083 20.4193 6.57811 20.5969 7.19979C20.6857 7.82147 20.7301 8.44315 20.6857 9.15364H14.2469C14.2469 9.86413 14.5133 10.5302 14.8686 10.8855ZM17.6661 6.22286C17.3553 5.91202 16.8668 5.7344 16.2895 5.7344C15.8899 5.7344 15.579 5.82321 15.3126 5.95643C15.0462 6.08965 14.8686 6.26727 14.6909 6.44489C14.5133 6.62251 14.4245 6.84454 14.3801 7.06657C14.3357 7.2886 14.2913 7.46622 14.2913 7.64385H18.2878C18.199 6.97776 17.977 6.5337 17.6661 6.22286ZM13.7584 1.56026H18.7318V2.75922H13.7584V1.56026Z" fill="white"/>
</svg>
