<svg width="16" height="15" viewBox="0 0 16 15" fill="none" xmlns="http://www.w3.org/2000/svg">
<path fill-rule="evenodd" clip-rule="evenodd" d="M11 7C10.586 7 10.25 6.664 10.25 6.25C10.25 5.836 10.586 5.5 11 5.5C11.414 5.5 11.75 5.836 11.75 6.25C11.75 6.664 11.414 7 11 7M8 7C7.586 7 7.25 6.664 7.25 6.25C7.25 5.836 7.586 5.5 8 5.5C8.414 5.5 8.75 5.836 8.75 6.25C8.75 6.664 8.414 7 8 7M5 7C4.586 7 4.25 6.664 4.25 6.25C4.25 5.836 4.586 5.5 5 5.5C5.414 5.5 5.75 5.836 5.75 6.25C5.75 6.664 5.414 7 5 7M13.25 0.25H2.75C1.5095 0.25 0.5 1.2595 0.5 2.5V13.75C0.5 14.02 0.6455 14.2698 0.88025 14.4025C0.995 14.4678 1.1225 14.5 1.25 14.5C1.3835 14.5 1.517 14.4648 1.63625 14.3928L5.02925 12.3572C5.14625 12.2867 5.27975 12.25 5.4155 12.25H13.25C14.4905 12.25 15.5 11.2405 15.5 10V2.5C15.5 1.2595 14.4905 0.25 13.25 0.25" fill="#50D86A"/>
</svg>
