<svg width="16" height="14" viewBox="0 0 16 14" fill="none" xmlns="http://www.w3.org/2000/svg">
<path fill-rule="evenodd" clip-rule="evenodd" d="M5.75 6.25C7.4045 6.25 8.75 4.9045 8.75 3.25C8.75 1.5955 7.4045 0.25 5.75 0.25C4.0955 0.25 2.75 1.5955 2.75 3.25C2.75 4.9045 4.0955 6.25 5.75 6.25ZM11.75 7.75C12.9905 7.75 14 6.7405 14 5.5C14 4.2595 12.9905 3.25 11.75 3.25C10.5095 3.25 9.5 4.2595 9.5 5.5C9.5 6.7405 10.5095 7.75 11.75 7.75ZM15.5 12.25C15.5 12.664 15.1648 13 14.75 13H11C11 13.414 10.6648 13.75 10.25 13.75H1.25C0.83525 13.75 0.5 13.414 0.5 13C0.5 10.105 2.85575 7.75 5.75 7.75C7.19525 7.75 8.50475 8.33725 9.455 9.2845C10.1067 8.7805 10.9093 8.5 11.75 8.5C13.8177 8.5 15.5 10.1823 15.5 12.25Z" fill="#A86CE4"/>
</svg>
