<svg width="16" height="13" viewBox="0 0 16 13" fill="none" xmlns="http://www.w3.org/2000/svg">
<path fill-rule="evenodd" clip-rule="evenodd" d="M8.00003 12.75V12.75C7.80053 12.75 7.61003 12.6712 7.46903 12.5295L1.64378 6.6945C0.116785 5.1645 0.116785 2.67525 1.64378 1.14525C2.38103 0.40725 3.36578 0 4.41503 0C5.46428 0 6.44903 0.40725 7.18628 1.14525L8.00003 1.9605L8.81303 1.146C9.55103 0.40725 10.5358 0 11.585 0C12.6343 0 13.619 0.40725 14.3563 1.14525C15.8833 2.67525 15.8833 5.1645 14.357 6.6945L8.53103 12.5303C8.39003 12.6713 8.19953 12.75 8.00003 12.75" fill="#E24444"/>
</svg>
