<svg width="16" height="12" viewBox="0 0 16 12" fill="none" xmlns="http://www.w3.org/2000/svg">
<path fill-rule="evenodd" clip-rule="evenodd" d="M8 4.87495C7.37975 4.87495 6.875 5.3797 6.875 5.99995C6.875 6.6202 7.37975 7.12495 8 7.12495C8.62025 7.12495 9.125 6.6202 9.125 5.99995C9.125 5.3797 8.62025 4.87495 8 4.87495M8 8.62495C6.5525 8.62495 5.375 7.44745 5.375 5.99995C5.375 4.55245 6.5525 3.37495 8 3.37495C9.4475 3.37495 10.625 4.55245 10.625 5.99995C10.625 7.44745 9.4475 8.62495 8 8.62495M15.401 5.62648C14.9218 4.79248 12.2795 0.611977 7.79675 0.752227C3.6515 0.857977 1.2395 4.51048 0.599 5.62648C0.467 5.85823 0.467 6.14173 0.599 6.37348C1.0715 7.19623 3.6215 11.25 8.01875 11.25C8.0795 11.25 8.141 11.2492 8.20325 11.2477C12.3485 11.142 14.7605 7.48948 15.401 6.37348C15.533 6.14173 15.533 5.85823 15.401 5.62648" fill="#FFA10B"/>
</svg>
