<svg width="4" height="14" viewBox="0 0 4 14" fill="none" xmlns="http://www.w3.org/2000/svg">
<path fill-rule="evenodd" clip-rule="evenodd" d="M2 3.25C2.828 3.25 3.5 2.578 3.5 1.75C3.5 0.922 2.828 0.25 2 0.25C1.172 0.25 0.5 0.922 0.5 1.75C0.5 2.578 1.172 3.25 2 3.25ZM2 5.5C1.172 5.5 0.5 6.172 0.5 7C0.5 7.828 1.172 8.5 2 8.5C2.828 8.5 3.5 7.828 3.5 7C3.5 6.172 2.828 5.5 2 5.5ZM0.5 12.25C0.5 11.422 1.172 10.75 2 10.75C2.828 10.75 3.5 11.422 3.5 12.25C3.5 13.078 2.828 13.75 2 13.75C1.172 13.75 0.5 13.078 0.5 12.25Z" fill="#FFFFFF"/>
</svg>
