<svg width="20" height="20" viewBox="0 0 20 20" fill="none" xmlns="http://www.w3.org/2000/svg">
<path d="M10 19.9883C4.48438 19.9883 0 15.5117 0 10.0039C0 4.48828 4.48438 0.0117188 10 0.0117188C15.5156 0.0117188 20 4.48828 20 9.99609C20 15.5039 15.5156 19.9883 10 19.9883ZM18.4297 11.3633C18.1406 11.2695 15.7891 10.5742 13.1094 10.9961C14.2266 14.0586 14.6797 16.5586 14.7656 17.0742C16.6875 15.7852 18.0547 13.7383 18.4297 11.3633ZM13.3359 17.8633C13.2109 17.1133 12.7109 14.5039 11.5156 11.3945C11.5 11.4023 11.4766 11.4102 11.4609 11.4102C6.64062 13.0898 4.91406 16.4258 4.75781 16.7383C6.20312 17.8633 8.02344 18.5352 10 18.5352C11.1797 18.543 12.3125 18.3008 13.3359 17.8633ZM3.65625 15.7148C3.85156 15.3867 6.19531 11.5117 10.6016 10.082C10.7109 10.043 10.8281 10.0117 10.9375 9.98047C10.7266 9.49609 10.4922 9.01172 10.2422 8.53516C5.97656 9.80859 1.83594 9.75391 1.46094 9.74609C1.46094 9.83203 1.45312 9.91797 1.45312 10.0039C1.46094 12.1992 2.28906 14.1992 3.65625 15.7148ZM1.64062 8.26172C2.02344 8.26953 5.53906 8.28516 9.53906 7.22266C8.125 4.70703 6.59375 2.59766 6.375 2.29297C3.97656 3.41797 2.19531 5.62109 1.64062 8.26172ZM8 1.71484C8.23438 2.02734 9.78906 4.13672 11.1875 6.70703C14.2266 5.56641 15.5078 3.84766 15.6641 3.62891C14.1562 2.29297 12.1719 1.48047 10 1.48047C9.3125 1.48047 8.64062 1.56641 8 1.71484ZM16.6094 4.61328C16.4297 4.85547 15 6.69141 11.8438 7.98047C12.0391 8.38672 12.2344 8.80078 12.4141 9.21484C12.4766 9.36328 12.5391 9.51172 12.6016 9.65234C15.4453 9.29297 18.2656 9.87109 18.5469 9.92578C18.5234 7.91797 17.8047 6.06641 16.6094 4.61328Z" fill="white"/>
</svg>
