<svg width="14" height="14" viewBox="0 0 14 14" fill="none" xmlns="http://www.w3.org/2000/svg">
                            <path d="M7.00004 5.83333C9.31937 5.83333 11.6667 5.03183 11.6667 3.5C11.6667 1.96816 9.31937 1.16666 7.00004 1.16666C4.68071 1.16666 2.33337 1.96816 2.33337 3.5C2.33337 5.03183 4.68071 5.83333 7.00004 5.83333Z" fill="white"/>
                            <path d="M2.33337 5.83333C2.33337 7.36516 4.68071 8.16666 7.00004 8.16666C9.31937 8.16666 11.6667 7.36516 11.6667 5.83333V4.66666C11.6667 6.1985 9.31937 7 7.00004 7C4.68071 7 2.33337 6.1985 2.33337 4.66666V5.83333Z" fill="white"/>
                            <path d="M2.33337 8.16667C2.33337 9.6985 4.68071 10.5 7.00004 10.5C9.31937 10.5 11.6667 9.6985 11.6667 8.16667V7C11.6667 8.53183 9.31937 9.33333 7.00004 9.33333C4.68071 9.33333 2.33337 8.53183 2.33337 7V8.16667Z" fill="white"/>
                            <path d="M2.33337 10.5C2.33337 12.0318 4.68071 12.8333 7.00004 12.8333C9.31937 12.8333 11.6667 12.0318 11.6667 10.5V9.33334C11.6667 10.8652 9.31937 11.6667 7.00004 11.6667C4.68071 11.6667 2.33337 10.8652 2.33337 9.33334V10.5Z" fill="white"/>
                            </svg>