<svg width="6" height="6" viewBox="0 0 6 6" fill="none" xmlns="http://www.w3.org/2000/svg">
<path fill-rule="evenodd" clip-rule="evenodd" d="M2.99995 5.34374V5.34374C2.93068 5.34374 2.86453 5.3164 2.81558 5.26718L0.79292 3.24114C0.262712 2.70989 0.262712 1.84556 0.79292 1.31431C1.04891 1.05806 1.39084 0.916656 1.75516 0.916656C2.11948 0.916656 2.46141 1.05806 2.7174 1.31431L2.99995 1.59739L3.28224 1.31457C3.53849 1.05806 3.88042 0.916656 4.24474 0.916656C4.60907 0.916656 4.95099 1.05806 5.20698 1.31431C5.73719 1.84556 5.73719 2.70989 5.20724 3.24114L3.18433 5.26744C3.13537 5.3164 3.06922 5.34374 2.99995 5.34374" fill="#231F20"/>
</svg>
