<svg width="24" height="24" viewBox="0 0 22 14" fill="none" xmlns="http://www.w3.org/2000/svg">
<path fill-rule="evenodd" clip-rule="evenodd" d="M1.60637 0H20.3932C21.0022 0 21.5004 0.498167 21.5004 1.10717V1.22617C21.5004 1.83517 21.0022 2.33333 20.3932 2.33333H1.60637C0.997366 2.33333 0.500366 1.83517 0.500366 1.22617V1.10717C0.500366 0.498167 0.997366 0 1.60637 0ZM20.3932 5.83333H1.60637C0.997366 5.83333 0.500366 6.3315 0.500366 6.9405V7.0595C0.500366 7.6685 0.997366 8.16667 1.60637 8.16667H20.3932C21.0022 8.16667 21.5004 7.6685 21.5004 7.0595V6.9405C21.5004 6.3315 21.0022 5.83333 20.3932 5.83333ZM20.3932 11.6667H1.60637C0.997366 11.6667 0.500366 12.1648 0.500366 12.7738V12.8928C0.500366 13.5018 0.997366 14 1.60637 14H20.3932C21.0022 14 21.5004 13.5018 21.5004 12.8928V12.7738C21.5004 12.1648 21.0022 11.6667 20.3932 11.6667Z" fill="#5F5F6E"/>
</svg>
