<svg width="30" height="30" viewBox="0 0 30 30" fill="none" xmlns="http://www.w3.org/2000/svg">
<rect width="30" height="30" rx="10" fill="#1DA1F2"/>
<rect x="5" y="5" width="20" height="20" rx="10" fill="#1DA1F2"/>
<path d="M19.9011 12.8385C19.9011 12.9479 19.9011 13.0573 19.9011 13.151C19.9011 16.3854 17.4324 20.1198 12.9324 20.1198C11.5417 20.1198 10.2605 19.7135 9.16675 19.026C9.35425 19.0416 9.55737 19.0573 9.74487 19.0573C10.8855 19.0573 11.948 18.6666 12.7917 18.0104C11.7136 17.9948 10.8074 17.276 10.5105 16.3073C10.6667 16.3385 10.8074 16.3541 10.9792 16.3541C11.198 16.3541 11.4167 16.3229 11.6199 16.2604C10.4949 16.0416 9.65112 15.0573 9.65112 13.8698C9.65112 13.8541 9.65112 13.8541 9.65112 13.8385C9.97925 14.026 10.3542 14.1354 10.7605 14.151C10.1042 13.7135 9.66675 12.9635 9.66675 12.1041C9.66675 11.651 9.79175 11.2291 9.99487 10.8698C11.198 12.3541 13.0105 13.3229 15.0417 13.4323C14.9949 13.2604 14.9792 13.0573 14.9792 12.8698C14.9792 11.5104 16.073 10.4166 17.4324 10.4166C18.1355 10.4166 18.7761 10.7135 19.2136 11.1823C19.7761 11.0729 20.2917 10.8698 20.7761 10.5885C20.5886 11.1666 20.198 11.6354 19.698 11.9479C20.198 11.8854 20.6667 11.7604 21.1042 11.5573C20.7917 12.0573 20.3855 12.4948 19.9011 12.8385Z" fill="white"/>
</svg>
