<svg width="6" height="4" viewBox="0 0 6 4" fill="none" xmlns="http://www.w3.org/2000/svg">
<path fill-rule="evenodd" clip-rule="evenodd" d="M3.00001 1.6094C2.78465 1.6094 2.60939 1.78466 2.60939 2.00003C2.60939 2.21539 2.78465 2.39065 3.00001 2.39065C3.21537 2.39065 3.39063 2.21539 3.39063 2.00003C3.39063 1.78466 3.21537 1.6094 3.00001 1.6094M3.00007 2.9115C2.49747 2.9115 2.08861 2.50264 2.08861 2.00004C2.08861 1.49744 2.49747 1.08858 3.00007 1.08858C3.50268 1.08858 3.91153 1.49744 3.91153 2.00004C3.91153 2.50264 3.50268 2.9115 3.00007 2.9115M5.56983 1.87034C5.40343 1.58076 4.48598 0.129196 2.92947 0.177894C1.49014 0.214613 0.652645 1.48284 0.430249 1.87034C0.384416 1.95081 0.384416 2.04925 0.430249 2.12972C0.594312 2.41539 1.47973 3.82295 3.00655 3.82295C3.02764 3.82295 3.049 3.82269 3.07061 3.82216C4.50994 3.78545 5.34744 2.51722 5.56983 2.12972C5.61567 2.04925 5.61567 1.95081 5.56983 1.87034" fill="#1C1C24"/>
</svg>
