<svg width="30" height="30" viewBox="0 0 30 30" fill="none" xmlns="http://www.w3.org/2000/svg">
<rect width="30" height="30" rx="10" fill="#5181B8"/>
<rect x="5" y="5" width="20" height="20" rx="10" fill="#5181B8"/>
<path fill-rule="evenodd" clip-rule="evenodd" d="M21.3607 11.8894C21.4534 11.5804 21.3607 11.3533 20.9195 11.3533H19.4608C19.0899 11.3533 18.9191 11.5495 18.8263 11.7659C18.8263 11.7659 18.0845 13.5739 17.0336 14.7483C16.6936 15.0883 16.5391 15.1964 16.3537 15.1964C16.2609 15.1964 16.1267 15.0883 16.1267 14.7793V11.8894C16.1267 11.5185 16.0191 11.3533 15.71 11.3533H13.4178C13.1861 11.3533 13.0466 11.5254 13.0466 11.6886C13.0466 12.0402 13.572 12.1213 13.6262 13.1102V15.2584C13.6262 15.7293 13.5411 15.8147 13.3557 15.8147C12.8612 15.8147 11.6584 13.9985 10.9449 11.9204C10.8051 11.5164 10.6648 11.3533 10.292 11.3533H8.83337C8.4166 11.3533 8.33325 11.5495 8.33325 11.7659C8.33325 12.1522 8.82785 14.0685 10.6359 16.6028C11.8414 18.3334 13.5395 19.2718 15.0848 19.2718C16.0121 19.2718 16.1267 19.0634 16.1267 18.7045V17.3963C16.1267 16.9796 16.2146 16.8964 16.5081 16.8964C16.7246 16.8964 17.0954 17.0046 17.9609 17.8391C18.9499 18.8279 19.1129 19.2718 19.6692 19.2718H21.1279C21.5447 19.2718 21.7531 19.0634 21.6328 18.6522C21.5013 18.2423 21.0291 17.6478 20.4025 16.9428C20.0626 16.5409 19.5525 16.1082 19.3981 15.8919C19.1817 15.6137 19.2435 15.4902 19.3981 15.243C19.3981 15.243 21.1752 12.7395 21.3607 11.8895V11.8894Z" fill="white"/>
</svg>
