<svg width="6" height="6" viewBox="0 0 6 6" fill="none" xmlns="http://www.w3.org/2000/svg">
<path fill-rule="evenodd" clip-rule="evenodd" d="M4.04168 3C3.89793 3 3.78126 2.88333 3.78126 2.73958C3.78126 2.59583 3.89793 2.47916 4.04168 2.47916C4.18543 2.47916 4.30209 2.59583 4.30209 2.73958C4.30209 2.88333 4.18543 3 4.04168 3M3.00004 3C2.85629 3 2.73962 2.88333 2.73962 2.73958C2.73962 2.59583 2.85629 2.47916 3.00004 2.47916C3.14379 2.47916 3.26046 2.59583 3.26046 2.73958C3.26046 2.88333 3.14379 3 3.00004 3M1.9584 3C1.81465 3 1.69799 2.88333 1.69799 2.73958C1.69799 2.59583 1.81465 2.47916 1.9584 2.47916C2.10215 2.47916 2.21882 2.59583 2.21882 2.73958C2.21882 2.88333 2.10215 3 1.9584 3M4.82296 0.65625H1.17712C0.746395 0.65625 0.395874 1.00677 0.395874 1.4375V5.34375C0.395874 5.4375 0.446395 5.52422 0.527905 5.57031C0.567749 5.59297 0.61202 5.60417 0.656291 5.60417C0.702645 5.60417 0.748999 5.59193 0.790405 5.56693L1.96853 4.86016C2.00916 4.83568 2.05551 4.82292 2.10264 4.82292H4.82296C5.25369 4.82292 5.60421 4.4724 5.60421 4.04167V1.4375C5.60421 1.00677 5.25369 0.65625 4.82296 0.65625" fill="rgb(11, 199, 11)"/>
</svg>
