<svg width="24" height="24" viewBox="0 0 24 24" fill="none" xmlns="http://www.w3.org/2000/svg">
<path fill-rule="evenodd" clip-rule="evenodd" d="M13.1667 12.9764V14.3332C13.1667 14.9784 12.6452 15.4999 12 15.4999C11.3549 15.4999 10.8334 14.9784 10.8334 14.3332V11.9999C10.8334 11.3547 11.3549 10.8332 12 10.8332C12.9649 10.8332 13.75 10.048 13.75 9.08319C13.75 8.11836 12.9649 7.33319 12 7.33319C11.0352 7.33319 10.25 8.11836 10.25 9.08319C10.25 9.72836 9.72854 10.2499 9.08337 10.2499C8.43821 10.2499 7.91671 9.72836 7.91671 9.08319C7.91671 6.83152 9.74837 4.99986 12 4.99986C14.2517 4.99986 16.0834 6.83152 16.0834 9.08319C16.0834 10.9265 14.8467 12.47 13.1667 12.9764M12 18.9999C11.3549 18.9999 10.8334 18.4784 10.8334 17.8332C10.8334 17.188 11.3549 16.6665 12 16.6665C12.6452 16.6665 13.1667 17.188 13.1667 17.8332C13.1667 18.4784 12.6452 18.9999 12 18.9999M12 0.333191C5.56704 0.333191 0.333374 5.56686 0.333374 11.9999C0.333374 18.4329 5.56704 23.6665 12 23.6665C18.433 23.6665 23.6667 18.4329 23.6667 11.9999C23.6667 5.56686 18.433 0.333191 12 0.333191" fill="#5F5F6F"/>
</svg>

