<svg width="6" height="6" viewBox="0 0 6 6" fill="none" xmlns="http://www.w3.org/2000/svg">
<path fill-rule="evenodd" clip-rule="evenodd" d="M2.21879 2.73958C2.79327 2.73958 3.26046 2.2724 3.26046 1.69792C3.26046 1.12344 2.79327 0.65625 2.21879 0.65625C1.64431 0.65625 1.17712 1.12344 1.17712 1.69792C1.17712 2.2724 1.64431 2.73958 2.21879 2.73958ZM4.30212 3.26041C4.73285 3.26041 5.08337 2.90989 5.08337 2.47916C5.08337 2.04844 4.73285 1.69791 4.30212 1.69791C3.87139 1.69791 3.52087 2.04844 3.52087 2.47916C3.52087 2.90989 3.87139 3.26041 4.30212 3.26041ZM5.60421 4.82292C5.60421 4.96666 5.4878 5.08333 5.34379 5.08333H4.04171C4.04171 5.22708 3.9253 5.34375 3.78129 5.34375H0.656291C0.51228 5.34375 0.395874 5.22708 0.395874 5.08333C0.395874 4.07812 1.21384 3.26042 2.21879 3.26042C2.72061 3.26042 3.1753 3.46432 3.50525 3.79323C3.73155 3.61823 4.0102 3.52083 4.30212 3.52083C5.02009 3.52083 5.60421 4.10495 5.60421 4.82292Z" fill="rgb(204, 20, 204)"/>
</svg>
