<svg id="Capa_1" enable-background="new 0 0 512 512" height="24" viewBox="0 0 512 512" width="24" xmlns="http://www.w3.org/2000/svg" xmlns:xlink="http://www.w3.org/1999/xlink"><linearGradient id="SVGID_1_" gradientUnits="userSpaceOnUse" x1="256" x2="256" y1="390.868" y2="120.868"><stop offset="0" stop-color="#fd5900"/><stop offset="1" stop-color="#ffde00"/></linearGradient><linearGradient id="SVGID_2_" gradientUnits="userSpaceOnUse" x1="256" x2="256" y1="512" y2="0"><stop offset="0" stop-color="#ffe59a"/><stop offset="1" stop-color="#ffffd5"/></linearGradient><g id="Sun_3_"><g><g><circle cx="256" cy="255.868" fill="url(#SVGID_1_)" r="135"/></g></g><g><g><path d="m256 0c-8.291 0-15 6.709-15 15v60.868c0 8.291 6.709 15 15 15s15-6.709 15-15v-60.868c0-8.291-6.709-15-15-15zm0 420.868c-8.291 0-15 6.709-15 15v61.132c0 8.291 6.709 15 15 15s15-6.709 15-15v-61.132c0-8.291-6.709-15-15-15zm-165-165c0-8.291-6.709-15-15-15h-61c-8.291 0-15 6.709-15 15s6.709 15 15 15h61c8.291 0 15-6.709 15-15zm406-15h-61c-8.291 0-15 6.709-15 15s6.709 15 15 15h61c8.291 0 15-6.709 15-15s-6.709-15-15-15zm-400.097-165.307c-5.859-5.859-15.352-5.859-21.211 0s-5.859 15.352 0 21.211l42.422 42.422c5.86 5.859 15.352 5.859 21.211 0s5.859-15.352 0-21.211zm296.983 296.982c-5.859-5.859-15.352-5.859-21.211 0s-5.859 15.352 0 21.211l42.422 42.422c5.86 5.859 15.352 5.859 21.211 0s5.859-15.352 0-21.211zm-275.772 0-42.422 42.422c-5.859 5.859-5.859 15.352 0 21.211 5.86 5.859 15.352 5.859 21.211 0l42.422-42.422c5.859-5.859 5.859-15.352 0-21.211s-15.351-5.859-21.211 0zm275.772-233.35 42.422-42.422c5.859-5.859 5.859-15.352 0-21.211s-15.352-5.859-21.211 0l-42.422 42.422c-5.859 5.859-5.859 15.352 0 21.211 5.859 5.86 15.352 5.86 21.211 0z" fill="url(#SVGID_2_)"/></g></g></g></svg>